<?xml version="1.0" encoding="utf-8"?>
<!-- Generator: Adobe Illustrator 16.0.0, SVG Export Plug-In . SVG Version: 6.00 Build 0)  -->
<!DOCTYPE svg PUBLIC "-//W3C//DTD SVG 1.1//EN" "http://www.w3.org/Graphics/SVG/1.1/DTD/svg11.dtd">
<svg version="1.1" id="Шар_1" xmlns="http://www.w3.org/2000/svg" xmlns:xlink="http://www.w3.org/1999/xlink" x="0px" y="0px"
	 width="72.992px" height="72.99px" viewBox="0 0 72.992 72.99" enable-background="new 0 0 72.992 72.99" xml:space="preserve">
<g>
	<circle fill="none" stroke="#FFFFFF" stroke-width="0.9908" stroke-miterlimit="10" cx="36.496" cy="36.495" r="36"/>
	<g>
		<path fill="none" stroke="#FFFFFF" stroke-width="0.9908" stroke-miterlimit="10" d="M41.076,17.139L25.957,32.233
			c0,0,2.623,3.209,1.932,6.947c-0.708,3.832-4.531,3.4-7.663,6.105c-4.593,3.967-3.159,8.332-2.519,9.74
			c1.354,0.656,5.811,2.279,9.9-2.279c2.764-3.08,2.402-6.91,6.248-7.547c3.751-0.619,6.91,2.063,6.91,2.063l15.246-14.965
			L41.076,17.139z"/>
		
			<line fill="none" stroke="#FFFFFF" stroke-width="0.9908" stroke-miterlimit="10" x1="31.285" y1="26.914" x2="46.25" y2="41.88"/>
		<path fill="none" stroke="#FFFFFF" stroke-width="0.9908" stroke-miterlimit="10" d="M35.183,23.021c0,0-0.258,2.243,1.7,2.534
			s4.012-2.813,5.762-1.646s-1.116,4.745-0.257,6.089c1.037,1.62,3.079,0.058,4.787,0.516s1.277,1.955,0.666,4.375
			c-0.275,1.092,0.031,3.405,3.717,1.779"/>
		<circle fill="none" stroke="#FFFFFF" stroke-width="0.9908" stroke-miterlimit="10" cx="21.259" cy="51.306" r="0.791"/>
	</g>
</g>
</svg>
