<?xml version="1.0" encoding="utf-8"?>
<!-- Generator: Adobe Illustrator 16.0.0, SVG Export Plug-In . SVG Version: 6.00 Build 0)  -->
<!DOCTYPE svg PUBLIC "-//W3C//DTD SVG 1.1//EN" "http://www.w3.org/Graphics/SVG/1.1/DTD/svg11.dtd">
<svg version="1.1" id="Шар_1" xmlns="http://www.w3.org/2000/svg" xmlns:xlink="http://www.w3.org/1999/xlink" x="0px" y="0px"
	 width="72.992px" height="72.99px" viewBox="0 0 72.992 72.99" enable-background="new 0 0 72.992 72.99" xml:space="preserve">
<circle fill="none" stroke="#FFFFFF" stroke-miterlimit="10" cx="36.496" cy="36.494" r="36"/>
<path fill="none" stroke="#FFFFFF" stroke-miterlimit="10" d="M21.456,36.689c0,0,1.063-1.059,3.813-4.107
	c1.197-1.328,2.25-2.879,5.375-5.041c3.125-2.159,3.875-4.561,3.75-7.801s4.875-2.04,4.375,3.24c-0.5,5.281-4.291,8.321-0.458,9.041
	c0,0,5.141,0.036,6.854,0.037c7.4,0.006,4.879,4.472,4.916,4.505c2.031,1.781,1.826,3.881,0.063,5.188c0,0,2.686,3.742-1.314,5.742
	c0,0,2.738,3.689-1.554,4.203c-4.438,0.531-13.946,0.579-17.446-0.202c-2.138-0.479-2.435-1.903-3.998-2.431
	c-1.036-0.35-3.432-0.08-3.432-0.08"/>
</svg>
