<?xml version="1.0" encoding="utf-8"?>
<!-- Generator: Adobe Illustrator 16.0.0, SVG Export Plug-In . SVG Version: 6.00 Build 0)  -->
<!DOCTYPE svg PUBLIC "-//W3C//DTD SVG 1.1//EN" "http://www.w3.org/Graphics/SVG/1.1/DTD/svg11.dtd">
<svg version="1.1" id="Шар_1" xmlns="http://www.w3.org/2000/svg" xmlns:xlink="http://www.w3.org/1999/xlink" x="0px" y="0px"
	 width="72.992px" height="72.99px" viewBox="0 0 72.992 72.99" enable-background="new 0 0 72.992 72.99" xml:space="preserve">
<circle fill="none" stroke="#FFFFFF" stroke-width="0.9908" stroke-miterlimit="10" cx="36.496" cy="36.495" r="36"/>
<path fill="none" stroke="#FFFFFF" stroke-miterlimit="10" d="M56.936,38.149c-2.778-2.074-4.84,1.141-4.84,1.141
	s-3.99,5.502-5.1,5.773c-1.542,0.379-0.995-1.57-0.995-1.57c0.781-4.73,6.461-10.188,6.078-16.155
	c-0.43-6.698-9.727-7.343-13.906-7.343c-0.023,0-1.255,0-2.415,0c-0.559,0-0.924,0-0.938,0c-4.18,0-13.477,0.645-13.906,7.343
	c-0.383,5.967,5.297,11.385,6.078,16.116c0,0,0.547,1.969-0.995,1.59c-1.11-0.271-5.101-5.766-5.101-5.766s-2.061-3.208-4.839-1.135
	c0,0-2.409,1.723,0.282,4.83c1.955,2.256,4.67,5.814,6.49,8.068c0.695,0.859,1.644,1.924,4.166,1.934
	c2.175,0.008,14.563,0.012,18.438-0.002c2.522-0.008,4.034-1.07,4.729-1.932c1.821-2.252,4.536-5.811,6.49-8.066
	C59.345,39.868,56.936,38.149,56.936,38.149z"/>
<line fill="none" stroke="#FFFFFF" stroke-miterlimit="10" x1="26.496" y1="44.995" x2="46.496" y2="44.995"/>
</svg>
