<?xml version="1.0" encoding="utf-8"?>
<!-- Generator: Adobe Illustrator 16.0.0, SVG Export Plug-In . SVG Version: 6.00 Build 0)  -->
<!DOCTYPE svg PUBLIC "-//W3C//DTD SVG 1.1//EN" "http://www.w3.org/Graphics/SVG/1.1/DTD/svg11.dtd">
<svg version="1.1" id="Шар_1" xmlns="http://www.w3.org/2000/svg" xmlns:xlink="http://www.w3.org/1999/xlink" x="0px" y="0px"
	 width="20px" height="20px" viewBox="0 0 20 20" enable-background="new 0 0 20 20" xml:space="preserve">
<path fill="#FFFFFF" d="M15.862,0H3.592C1.461,0,0,1.326,0,3.459v12.27C0,17.86,1.461,20,3.592,20h12.271
	C17.996,20,20,17.86,20,15.729V7.54V3.459C20,1.326,17.996,0,15.862,0z M16.973,2H17v3.285l-3.172,0.011l0.091-3.336L16.973,2z
	 M6.873,7.54c0.641-0.889,1.681-1.466,2.854-1.466c1.177,0,2.217,0.581,2.857,1.466c0.415,0.578,0.663,1.287,0.663,2.051
	c0,1.943-1.581,3.521-3.521,3.521s-3.521-1.577-3.521-3.521C6.21,8.827,6.455,8.118,6.873,7.54z M18,15.729
	C18,16.788,16.921,18,15.862,18H3.592C2.533,18,2,16.788,2,15.729V8h2.66C4.404,8,4.259,9.098,4.259,9.821
	c0,3.015,2.452,5.357,5.468,5.357c3.02,0,5.472-2.284,5.472-5.299C15.198,9.156,15.049,8,14.794,8H18V15.729z"/>
</svg>
